<svg width="168" height="85" viewBox="0 0 168 85" fill="none" xmlns="http://www.w3.org/2000/svg">
<path d="M127.514 48.6555C127.514 48.6555 158.926 44.2424 158.926 53.0687C158.926 61.895 160.434 75.8954 127.514 75.8954C94.5934 75.8954 92.6328 55.5821 88.333 35.5117C84.0332 15.4412 107.113 9 123.31 9C139.508 9 158.926 9.88263 158.926 26.5897" stroke="#5465FF" stroke-width="18" stroke-linecap="round"/>
<path d="M127.514 48.6555C127.514 48.6555 158.926 44.2424 158.926 53.0687C158.926 61.895 160.434 75.8954 127.514 75.8954C94.5934 75.8954 92.6328 55.5821 88.333 35.5117C84.0332 15.4412 107.113 9 123.31 9C139.508 9 158.926 9.88263 158.926 26.5897" stroke="#051923" stroke-opacity="0.16" stroke-width="18" stroke-linecap="round"/>
<path d="M69.3043 44.2362C69.3043 44.2362 77.2352 75.2886 44.8637 75.2886C12.4922 75.2886 8.99982 75.2886 9.00001 39.2789C9.00011 19.381 21.3409 11.2729 44.8637 11.2726C71.1927 11.2722 86.6769 14.3038 88.704 39.279C90.7312 64.2541 105.968 76.8997 134.498 75.2886" stroke="#5465FF" stroke-width="18" stroke-linecap="round"/>
<path d="M69.3043 44.2362C69.3043 44.2362 77.2352 75.2886 44.8637 75.2886C12.4922 75.2886 8.99982 75.2886 9.00001 39.2789C9.00011 19.381 21.3409 11.2729 44.8637 11.2726C71.1927 11.2722 86.6769 14.3038 88.704 39.279C90.7312 64.2541 105.968 76.8997 134.498 75.2886" stroke="white" stroke-opacity="0.09" stroke-width="18" stroke-linecap="round"/>
</svg>
