<svg width="239" height="173" viewBox="0 0 239 173" fill="none" xmlns="http://www.w3.org/2000/svg">
<path d="M23.9817 147.136H11.4057L9.38969 153.088H0.797686L12.9897 119.392H22.4937L34.6857 153.088H25.9977L23.9817 147.136ZM21.8697 140.8L17.6937 128.464L13.5657 140.8H21.8697ZM66.5243 130.048C65.9163 128.928 65.0363 128.08 63.8843 127.504C62.7643 126.896 61.4363 126.592 59.9003 126.592C57.2443 126.592 55.1163 127.472 53.5163 129.232C51.9163 130.96 51.1163 133.28 51.1163 136.192C51.1163 139.296 51.9483 141.728 53.6123 143.488C55.3083 145.216 57.6283 146.08 60.5723 146.08C62.5883 146.08 64.2843 145.568 65.6603 144.544C67.0683 143.52 68.0923 142.048 68.7323 140.128H58.3163V134.08H76.1723V141.712C75.5643 143.76 74.5243 145.664 73.0523 147.424C71.6123 149.184 69.7723 150.608 67.5323 151.696C65.2923 152.784 62.7643 153.328 59.9483 153.328C56.6203 153.328 53.6443 152.608 51.0203 151.168C48.4283 149.696 46.3963 147.664 44.9243 145.072C43.4843 142.48 42.7643 139.52 42.7643 136.192C42.7643 132.864 43.4843 129.904 44.9243 127.312C46.3963 124.688 48.4283 122.656 51.0203 121.216C53.6123 119.744 56.5723 119.008 59.9003 119.008C63.9323 119.008 67.3243 119.984 70.0763 121.936C72.8603 123.888 74.7003 126.592 75.5963 130.048H66.5243ZM103.663 153.088L96.6548 140.368H94.6868V153.088H86.4788V119.392H100.255C102.911 119.392 105.167 119.856 107.023 120.784C108.911 121.712 110.319 122.992 111.247 124.624C112.175 126.224 112.639 128.016 112.639 130C112.639 132.24 111.999 134.24 110.719 136C109.471 137.76 107.615 139.008 105.151 139.744L112.927 153.088H103.663ZM94.6868 134.56H99.7748C101.279 134.56 102.399 134.192 103.135 133.456C103.903 132.72 104.287 131.68 104.287 130.336C104.287 129.056 103.903 128.048 103.135 127.312C102.399 126.576 101.279 126.208 99.7748 126.208H94.6868V134.56ZM144.527 147.136H131.951L129.935 153.088H121.343L133.535 119.392H143.039L155.231 153.088H146.543L144.527 147.136ZM142.415 140.8L138.239 128.464L134.111 140.8H142.415ZM194.846 153.088H186.638L172.91 132.304V153.088H164.702V119.392H172.91L186.638 140.272V119.392H194.846V153.088ZM227.532 147.136H214.956L212.94 153.088H204.348L216.54 119.392H226.044L238.236 153.088H229.548L227.532 147.136ZM225.42 140.8L221.244 128.464L217.116 140.8H225.42Z" fill="#5465FF"/>
<path d="M171.065 63.5879H211C217.075 63.5879 221.864 68.6151 219.639 74.2682C215.428 84.9697 203.703 99.8652 171.065 99.8652C127.481 99.8652 124.885 73.0591 119.193 46.5735C113.5 20.088 160 11.5879 165.5 11.588C171 11.5881 209.5 9.08799 215 31.588" stroke="#5465FF" stroke-width="23" stroke-linecap="round"/>
<path d="M171.065 63.5879H211C217.075 63.5879 221.864 68.6151 219.639 74.2682C215.428 84.9697 203.703 99.8652 171.065 99.8652C127.481 99.8652 124.885 73.0591 119.193 46.5735C113.5 20.088 160 11.5879 165.5 11.588C171 11.5881 209.5 9.08799 215 31.588" stroke="#051923" stroke-opacity="0.16" stroke-width="23" stroke-linecap="round"/>
<path d="M94 58.0879C94 58.0879 104.5 99.0656 61.6426 99.0656C18.7851 99.0656 14.1615 99.0656 14.1617 51.5462C14.1618 25.2883 30.5001 14.5886 61.6426 14.5882C96.5001 14.5877 117 18.5883 119.684 51.5462C122.368 84.5042 142.671 106.319 180.312 99.0656" stroke="#5465FF" stroke-width="23" stroke-linecap="round"/>
<path d="M94 58.0879C94 58.0879 104.5 99.0656 61.6426 99.0656C18.7851 99.0656 14.1615 99.0656 14.1617 51.5462C14.1618 25.2883 30.5001 14.5886 61.6426 14.5882C96.5001 14.5877 117 18.5883 119.684 51.5462C122.368 84.5042 142.671 106.319 180.312 99.0656" stroke="white" stroke-opacity="0.09" stroke-width="23" stroke-linecap="round"/>
</svg>
