<svg width="320" height="72" viewBox="0 0 320 72" fill="none" xmlns="http://www.w3.org/2000/svg">
<path d="M123.513 47.048H110.937L108.921 53H100.329L112.521 19.304H122.025L134.217 53H125.529L123.513 47.048ZM121.401 40.712L117.225 28.376L113.097 40.712H121.401ZM162.215 29.96C161.607 28.84 160.727 27.992 159.575 27.416C158.455 26.808 157.127 26.504 155.591 26.504C152.935 26.504 150.807 27.384 149.207 29.144C147.607 30.872 146.807 33.192 146.807 36.104C146.807 39.208 147.639 41.64 149.303 43.4C150.999 45.128 153.319 45.992 156.263 45.992C158.279 45.992 159.975 45.48 161.351 44.456C162.759 43.432 163.783 41.96 164.423 40.04H154.007V33.992H171.863V41.624C171.255 43.672 170.215 45.576 168.743 47.336C167.303 49.096 165.463 50.52 163.223 51.608C160.983 52.696 158.455 53.24 155.639 53.24C152.311 53.24 149.335 52.52 146.711 51.08C144.119 49.608 142.087 47.576 140.615 44.984C139.175 42.392 138.455 39.432 138.455 36.104C138.455 32.776 139.175 29.816 140.615 27.224C142.087 24.6 144.119 22.568 146.711 21.128C149.303 19.656 152.263 18.92 155.591 18.92C159.623 18.92 163.015 19.896 165.767 21.848C168.551 23.8 170.391 26.504 171.287 29.96H162.215ZM195.514 53L188.506 40.28H186.538V53H178.33V19.304H192.106C194.762 19.304 197.018 19.768 198.874 20.696C200.762 21.624 202.17 22.904 203.098 24.536C204.026 26.136 204.49 27.928 204.49 29.912C204.49 32.152 203.85 34.152 202.57 35.912C201.322 37.672 199.466 38.92 197.002 39.656L204.778 53H195.514ZM186.538 34.472H191.626C193.13 34.472 194.25 34.104 194.986 33.368C195.754 32.632 196.138 31.592 196.138 30.248C196.138 28.968 195.754 27.96 194.986 27.224C194.25 26.488 193.13 26.12 191.626 26.12H186.538V34.472ZM232.538 47.048H219.962L217.946 53H209.354L221.546 19.304H231.05L243.242 53H234.554L232.538 47.048ZM230.426 40.712L226.25 28.376L222.122 40.712H230.426ZM279.017 53H270.809L257.081 32.216V53H248.873V19.304H257.081L270.809 40.184V19.304H279.017V53ZM307.863 47.048H295.287L293.271 53H284.679L296.871 19.304H306.375L318.567 53H309.879L307.863 47.048ZM305.751 40.712L301.575 28.376L297.447 40.712H305.751Z" fill="#5465FF"/>
<path d="M71.6366 39.5C71.6366 39.5 89.431 37 89.431 42C89.431 47 90.2856 54.9311 71.6366 54.9311C52.9876 54.9311 51.8769 43.4238 49.4412 32.0542C47.0054 20.6845 60.0799 17.0356 69.2554 17.0356C78.431 17.0356 89.431 17.5356 89.431 27" stroke="#5465FF" stroke-width="9" stroke-linecap="round"/>
<path d="M71.6366 39.5C71.6366 39.5 89.431 37 89.431 42C89.431 47 90.2856 54.9311 71.6366 54.9311C52.9876 54.9311 51.8769 43.4238 49.4412 32.0542C47.0054 20.6845 60.0799 17.0356 69.2554 17.0356C78.431 17.0356 89.431 17.5356 89.431 27" stroke="#051923" stroke-opacity="0.16" stroke-width="9" stroke-linecap="round"/>
<path d="M38.6616 36.9965C38.6616 36.9965 43.1544 54.5873 24.8164 54.5873C6.4783 54.5873 4.49989 54.5873 4.49999 34.1883C4.50005 22.9164 11.4909 18.3232 24.8164 18.3231C39.7314 18.3229 48.503 20.0402 49.6513 34.1883C50.7997 48.3364 59.431 55.5 75.5931 54.5873" stroke="#5465FF" stroke-width="9" stroke-linecap="round"/>
<path d="M38.6616 36.9965C38.6616 36.9965 43.1544 54.5873 24.8164 54.5873C6.4783 54.5873 4.49989 54.5873 4.49999 34.1883C4.50005 22.9164 11.4909 18.3232 24.8164 18.3231C39.7314 18.3229 48.503 20.0402 49.6513 34.1883C50.7997 48.3364 59.431 55.5 75.5931 54.5873" stroke="white" stroke-opacity="0.09" stroke-width="9" stroke-linecap="round"/>
</svg>
